<?xml version="1.0" standalone="no"?>
<!DOCTYPE svg PUBLIC "-//W3C//DTD SVG 1.1//EN"
"http://www.w3.org/Graphics/SVG/1.1/DTD/svg11.dtd">
<svg width="600mm" height="450mm" viewBox="0 0 600 450"
xmlns="http://www.w3.org/2000/svg" version="1.1">
<path d="m 15.000, 10.000 30,0 0,-6.4 40,0, 0,6.4 60,0 0,-6.4 40,0, 0,6.4 30,0 0,10 8,0 0,40 -8,0 0,10 -200,0 0,-10 -8,0 0,-40 8,0 0,-10 Z" fill="none" stroke="black" stroke-width="0.1" /><circle cx="35.000" cy="50.000" r="11.500" stroke="black" stroke-width="0.1" fill="none" /><circle cx="55.000" cy="30.000" r="11.500" stroke="black" stroke-width="0.1" fill="none" /><circle cx="75.000" cy="50.000" r="11.500" stroke="black" stroke-width="0.1" fill="none" /><circle cx="95.000" cy="30.000" r="11.500" stroke="black" stroke-width="0.1" fill="none" /><circle cx="115.000" cy="50.000" r="11.500" stroke="black" stroke-width="0.1" fill="none" /><circle cx="135.000" cy="30.000" r="11.500" stroke="black" stroke-width="0.1" fill="none" /><circle cx="155.000" cy="50.000" r="11.500" stroke="black" stroke-width="0.1" fill="none" /><circle cx="175.000" cy="30.000" r="11.500" stroke="black" stroke-width="0.1" fill="none" /><circle cx="195.000" cy="50.000" r="11.500" stroke="black" stroke-width="0.1" fill="none" /><circle cx="30.000" cy="27.500" r="7.250" stroke="black" stroke-width="0.1" fill="none" /><circle cx="200.000" cy="27.500" r="7.250" stroke="black" stroke-width="0.1" fill="none" /><path d="m 15.000, 90.000 30,0 0,-6.4 40,0, 0,6.4 60,0 0,-6.4 40,0, 0,6.4 30,0 0,10 8,0 0,40 -8,0 0,10 -200,0 0,-10 -8,0 0,-40 8,0 0,-10 Z" fill="none" stroke="black" stroke-width="0.1" /><circle cx="35.000" cy="130.000" r="11.500" stroke="black" stroke-width="0.1" fill="none" /><circle cx="55.000" cy="110.000" r="11.500" stroke="black" stroke-width="0.1" fill="none" /><circle cx="75.000" cy="130.000" r="11.500" stroke="black" stroke-width="0.1" fill="none" /><circle cx="95.000" cy="110.000" r="11.500" stroke="black" stroke-width="0.1" fill="none" /><circle cx="115.000" cy="130.000" r="11.500" stroke="black" stroke-width="0.1" fill="none" /><circle cx="135.000" cy="110.000" r="11.500" stroke="black" stroke-width="0.1" fill="none" /><circle cx="155.000" cy="130.000" r="11.500" stroke="black" stroke-width="0.1" fill="none" /><circle cx="175.000" cy="110.000" r="11.500" stroke="black" stroke-width="0.1" fill="none" /><circle cx="195.000" cy="130.000" r="11.500" stroke="black" stroke-width="0.1" fill="none" /><circle cx="30.000" cy="107.500" r="7.250" stroke="black" stroke-width="0.1" fill="none" /><circle cx="200.000" cy="107.500" r="7.250" stroke="black" stroke-width="0.1" fill="none" /><path d="m 15.000, 170.000 30,0 0,-6.4 40,0, 0,6.4 60,0 0,-6.4 40,0, 0,6.4 30,0 0,10 8,0 0,40 -8,0 0,10 -200,0 0,-10 -8,0 0,-40 8,0 0,-10 Z" fill="none" stroke="black" stroke-width="0.1" /><path d="m 250.000, 5.000 200,0 0,25 8,0 0,40 -8,0 0,25 -200,0 0,-25 -8,0 0,-40 8,0 0,-25 Z" fill="none" stroke="black" stroke-width="0.1" /><circle cx="350.000" cy="45.000" r="2.400" stroke="black" stroke-width="0.1" fill="none" /><circle cx="350.000" cy="48.400" r="4.200" stroke="black" stroke-width="0.1" fill="none" /><rect width="39.800" height="6.250" x="279.900" y="10.050"  fill="none" stroke="black" stroke-width="0.1"/>
<rect width="39.800" height="6.250" x="379.900" y="10.050"  fill="none" stroke="black" stroke-width="0.1"/>
<rect width="39.800" height="6.250" x="279.900" y="47.550"  fill="none" stroke="black" stroke-width="0.1"/>
<rect width="39.800" height="6.250" x="379.900" y="47.550"  fill="none" stroke="black" stroke-width="0.1"/>
<rect width="39.800" height="6.250" x="279.900" y="85.050"  fill="none" stroke="black" stroke-width="0.1"/>
<rect width="39.800" height="6.250" x="379.900" y="85.050"  fill="none" stroke="black" stroke-width="0.1"/>
<path d="m 250.000, 143.600 23.5,0 0,-38.6 66.35,0 0,90 -89.85,0 Z" fill="none" stroke="black" stroke-width="0.1" /><rect width="39.800" height="6.250" x="289.750" y="147.550"  fill="none" stroke="black" stroke-width="0.1"/>
<rect width="39.800" height="6.250" x="289.750" y="185.050"  fill="none" stroke="black" stroke-width="0.1"/>
<rect width="39.800" height="6.250" x="289.750" y="110.050"  fill="none" stroke="black" stroke-width="0.1"/>
<rect width="6.250" height="39.800" x="273.550" y="129.900"  fill="none" stroke="black" stroke-width="0.1"/>
<path d="m 360.000, 143.600 23.5,0 0,-38.6 66.35,0 0,90 -89.85,0 Z" fill="none" stroke="black" stroke-width="0.1" /><rect width="39.800" height="6.250" x="399.750" y="147.550"  fill="none" stroke="black" stroke-width="0.1"/>
<rect width="39.800" height="6.250" x="399.750" y="185.050"  fill="none" stroke="black" stroke-width="0.1"/>
<rect width="39.800" height="6.250" x="399.750" y="110.050"  fill="none" stroke="black" stroke-width="0.1"/>
<rect width="6.250" height="39.800" x="383.550" y="129.900"  fill="none" stroke="black" stroke-width="0.1"/>
</svg>
